<svg width="200" height="200" viewBox="0 0 200 200" fill="none" xmlns="http://www.w3.org/2000/svg">
<path d="M141.809 174.157C141.895 173.419 141.926 158.846 141.879 141.777L141.786 110.738L95.6494 110.913L49.5129 111.087L49.2792 116.106C48.7965 126.539 53.0636 136.416 60.9983 143.239C71.8219 152.552 89.1163 156.336 106.784 153.27C110.405 152.639 113.364 152.425 113.754 152.767C115.319 154.149 133.112 174.137 132.925 174.305C132.808 174.398 127.046 172.5 120.115 170.071L107.509 165.669L103.428 166.89C97.1678 168.776 79.8267 168.575 70.9265 166.515C42.6917 159.986 24.9456 141.837 25.0001 119.535C25.0391 102.049 35.5901 86.4498 53.5775 77.2778C62.579 72.6885 76.9846 69.2465 87.4967 69.1727C89.6303 69.1593 90.5569 69.4747 90.8761 70.3268C92.3478 74.3458 94.2167 76.9155 97.7674 79.8141C101.186 82.5918 107.135 85.9264 108.684 85.9264C108.934 85.9264 107.734 84.3296 106.021 82.3704C101.91 77.6804 99.9244 73.6681 99.0289 68.2401C97.09 56.4179 102.922 44.0925 115.179 34.1288C120.326 29.942 129.787 24.3731 130.589 25.0575C130.799 25.2454 129.911 30.1635 128.611 35.994C127.31 41.8246 126.329 46.6488 126.423 46.7092C126.524 46.7763 131.336 48.2457 137.114 49.9767C142.892 51.7145 148.95 53.5663 150.562 54.0964C152.174 54.6264 153.817 55.0626 154.206 55.0626C154.595 55.0626 158.271 51.3052 162.374 46.7159C166.47 42.1199 170.138 38.2015 170.511 38.0002C171.399 37.5238 174.078 43.0055 175.183 47.5479C176.39 52.5129 176.235 63.2415 174.88 68.7567C172.847 77.0363 167.093 85.8057 161.993 88.4023L159.742 89.5496L159.524 120.447L159.306 151.344L151.27 162.751C142.658 174.975 141.56 176.304 141.809 174.157ZM153.723 73.7419C153.965 72.9502 153.684 71.3131 153.1 70.1053C150.959 65.6838 144.901 64.2748 140.268 67.1196C137.41 68.8708 137.293 69.6156 139.746 70.5817C141.186 71.1453 142.004 71.0715 143.484 70.2395C145.181 69.2801 145.531 69.2734 147.081 70.206C148.023 70.7763 148.794 71.8163 148.794 72.5141C148.794 73.7553 150.655 75.1308 152.399 75.1711C152.89 75.1845 153.482 74.5404 153.723 73.7419ZM126.976 63.5501C126.983 62.2619 126.127 60.8931 124.344 59.3567C120.84 56.3374 116.082 56.1361 112.671 58.8669C110.522 60.5778 110.491 60.6919 111.9 61.5775C112.734 62.1076 114.034 62.3156 114.922 62.0606C115.778 61.8124 117.53 61.5708 118.815 61.5239C120.801 61.45 121.26 61.752 121.883 63.5703C122.67 65.8783 125.418 67.4886 126.392 66.2071C126.711 65.7978 126.976 64.6035 126.976 63.5501ZM75.0067 134.738C72.515 132.048 73.0367 126.781 75.9723 125.124C78.5263 123.681 80.7378 124.802 81.8902 128.109C82.6377 130.27 82.5677 131.088 81.4386 133.135C80.3718 135.074 79.6476 135.577 77.9423 135.577C76.7587 135.577 75.435 135.201 75.0067 134.738ZM93.2355 134.349C91.1954 132.403 91.5224 127.438 93.8273 125.573C95.3613 124.325 95.9843 124.191 97.308 124.802C99.4572 125.788 100.516 127.626 100.516 130.35C100.516 134.799 96.2023 137.167 93.2355 134.349ZM111.854 134.088C107.828 129.136 113.964 121.453 118.208 126.143C119.726 127.814 119.446 133.168 117.779 134.47C115.794 136.013 113.286 135.852 111.854 134.088Z" fill="url(#paint0_linear_2_6)"/>
<defs>
<linearGradient id="paint0_linear_2_6" x1="60.0404" y1="62.238" x2="123.134" y2="140.42" gradientUnits="userSpaceOnUse">
<stop stop-color="#2D8CF0"/>
<stop offset="1" stop-color="#5AD1E6"/>
</linearGradient>
</defs>
</svg>
