<svg width="200" height="200" viewBox="0 0 200 200" fill="none" xmlns="http://www.w3.org/2000/svg">
<g clip-path="url(#clip0_3_5)">
<rect width="200" height="200" rx="34" fill="white"/>
<path d="M134.697 161.297C134.767 160.682 134.793 148.538 134.755 134.314L134.677 108.449L96.4846 108.594L58.2921 108.739L58.0987 112.922C57.6991 121.616 61.2315 129.846 67.7999 135.533C76.7599 143.293 91.0764 146.447 105.702 143.892C108.7 143.366 111.149 143.187 111.472 143.472C112.767 144.624 127.496 161.281 127.342 161.42C127.245 161.499 122.475 159.916 116.738 157.892L106.302 154.224L102.924 155.242C97.7416 156.813 83.3864 156.645 76.0186 154.929C52.6454 149.489 37.955 134.364 38.0001 115.779C38.0323 101.208 46.7667 88.2082 61.6569 80.5649C69.1085 76.7404 81.0336 73.8721 89.7357 73.8106C91.5019 73.7994 92.2689 74.0622 92.5332 74.7723C93.7515 78.1215 95.2986 80.2629 98.2379 82.6784C101.068 84.9932 105.992 87.772 107.275 87.772C107.481 87.772 106.489 86.4413 105.071 84.8087C101.667 80.9003 100.023 77.5568 99.2822 73.0334C97.6771 63.1816 102.505 52.9104 112.651 44.6073C116.912 41.1184 124.744 36.4776 125.408 37.0479C125.582 37.2045 124.847 41.3029 123.771 46.1617C122.694 51.0205 121.882 55.0407 121.959 55.091C122.043 55.1469 126.027 56.3714 130.81 57.8139C135.592 59.2621 140.607 60.8053 141.942 61.247C143.276 61.6887 144.636 62.0521 144.959 62.0521C145.281 62.0521 148.323 58.921 151.72 55.0966C155.111 51.2665 158.147 48.0012 158.456 47.8335C159.191 47.4365 161.409 52.0046 162.324 55.7899C163.323 59.9274 163.194 68.8679 162.073 73.4639C160.39 80.3636 155.627 87.6714 151.405 89.8352L149.542 90.7913L149.361 116.539L149.181 142.287L142.528 151.792C135.399 161.98 134.49 163.087 134.697 161.297ZM144.559 77.6183C144.759 76.9585 144.527 75.5942 144.043 74.5878C142.271 70.9031 137.256 69.729 133.42 72.0997C131.055 73.559 130.958 74.1796 132.988 74.9848C134.181 75.4544 134.858 75.3929 136.082 74.6996C137.488 73.9001 137.778 73.8945 139.06 74.6717C139.84 75.1469 140.479 76.0136 140.479 76.5951C140.479 77.6294 142.019 78.7757 143.463 78.8092C143.869 78.8204 144.359 78.2836 144.559 77.6183ZM122.417 69.1251C122.423 68.0516 121.714 66.911 120.238 65.6305C117.337 63.1145 113.399 62.9467 110.576 65.2224C108.796 66.6482 108.771 66.7432 109.937 67.4813C110.627 67.923 111.704 68.0963 112.438 67.8838C113.148 67.677 114.598 67.4757 115.661 67.4365C117.305 67.375 117.686 67.6266 118.201 69.1419C118.852 71.0653 121.128 72.4072 121.933 71.3393C122.198 70.9982 122.417 70.0029 122.417 69.1251ZM79.3963 128.449C77.3336 126.207 77.7655 121.817 80.1956 120.436C82.3099 119.234 84.1405 120.168 85.0945 122.924C85.7134 124.725 85.6554 125.407 84.7207 127.112C83.8376 128.728 83.2381 129.148 81.8264 129.148C80.8466 129.148 79.7508 128.834 79.3963 128.449ZM94.4864 128.124C92.7975 126.503 93.0683 122.365 94.9763 120.811C96.2461 119.771 96.7618 119.659 97.8576 120.168C99.6367 120.99 100.513 122.522 100.513 124.792C100.513 128.499 96.9423 130.473 94.4864 128.124ZM109.899 127.906C106.566 123.78 111.646 117.378 115.159 121.286C116.416 122.678 116.184 127.14 114.804 128.225C113.16 129.511 111.085 129.377 109.899 127.906Z" fill="url(#paint0_linear_3_5)"/>
<g clip-path="url(#clip1_3_5)">
<rect width="226.167" height="38.7398" transform="translate(57.9672 -38) rotate(31.0254)" fill="#FF6363"/>
<path d="M112.127 10.1748L118.559 14.0436L118.687 15.8218L117.694 17.4723L115.236 18.1364L115.313 18.1828L115.495 21.4428L113.621 24.5587L111.633 24.5812L105.633 20.9723L112.127 10.1748ZM112.954 13.025L111.303 15.7706L112.83 16.6891L116.155 15.7697L116.517 15.1681L112.954 13.025ZM110.264 17.4982L108.547 20.3518L112.28 22.597L113.458 20.638L113.349 19.3537L110.264 17.4982ZM122.773 19.6659L127.925 22.7646L128.049 25.0028L123.874 31.944L122.008 30.8214L122.314 30.3124L121.159 30.3111L117.797 28.2886L117.652 25.3867L118.143 24.5692L122.185 23.4715L125.301 25.3455L126.108 24.0036L121.743 21.378L122.773 19.6659ZM119.784 26.207L119.678 27.0466L122.994 29.0413L124.182 27.0669L121.822 25.6474L119.802 26.1762L119.784 26.207ZM133.796 26.2957L138.423 29.0789L138.562 31.7462L136.608 32.272L136.499 30.358L133.553 28.586L133 28.7366L130.541 32.8242L130.593 33.8214L133.554 35.6027L135.243 35.1692L135.331 37.0493L133.277 37.5996L128.65 34.8164L128.508 31.9793L131.569 26.8891L133.796 26.2957ZM144.946 28.9064L146.813 30.029L143.529 35.4894L148.089 34.2626L150.542 35.7377L146.176 36.8505L146.505 43.1822L145.457 44.9253L143.591 43.8027L144.444 42.3836L144.147 37.3947L142.044 37.9574L139.873 41.5668L138.007 40.4442L144.946 28.9064ZM155.379 39.277L159.929 42.0138L160.071 44.9559L155.652 46.1211L152.829 44.4233L152.161 45.5339L152.219 46.5557L155.181 48.337L156.558 47.9681L156.821 49.9749L154.768 50.5253L150.217 47.7884L150.081 44.976L153.152 39.8704L155.379 39.277ZM154.481 41.6777L153.766 42.8654L155.91 44.155L157.776 43.6384L157.742 43.1351L155.058 41.5209L154.481 41.6777ZM164.701 44.9264L166.568 46.049L166.262 46.558L167.416 46.5592L170.763 48.5724L170.918 51.4589L167.04 57.9065L165.173 56.784L168.847 50.6757L168.799 49.7434L165.806 47.9435L165.334 48.1005L161.456 54.5481L159.59 53.4255L164.701 44.9264ZM183.167 51.4747L185.033 52.5973L177.908 64.4436L176.042 63.321L176.348 62.812L175.209 62.82L171.877 60.8161L171.711 57.8802L174.679 52.9442L176.998 52.3015L180.33 54.3055L180.857 55.3155L183.167 51.4747ZM173.772 58.6788L173.82 59.6111L176.813 61.411L177.257 61.3003L179.707 57.2282L179.667 56.2804L176.706 54.4991L176.203 54.6375L173.772 58.6788Z" fill="white"/>
</g>
</g>
<rect x="2.5" y="2.5" width="195" height="195" rx="31.5" stroke="url(#paint1_linear_3_5)" stroke-width="5"/>
<defs>
<linearGradient id="paint0_linear_3_5" x1="67.007" y1="68.0316" x2="119.658" y2="132.841" gradientUnits="userSpaceOnUse">
<stop stop-color="#2D8CF0"/>
<stop offset="1" stop-color="#5AD1E6"/>
</linearGradient>
<linearGradient id="paint1_linear_3_5" x1="54" y1="-2.71201e-07" x2="107" y2="200" gradientUnits="userSpaceOnUse">
<stop stop-color="#3597EE" stop-opacity="0.83"/>
<stop offset="1" stop-color="#5AD1E6" stop-opacity="0.23"/>
</linearGradient>
<clipPath id="clip0_3_5">
<rect width="200" height="200" rx="34" fill="white"/>
</clipPath>
<clipPath id="clip1_3_5">
<rect width="226.167" height="38.7398" fill="white" transform="translate(57.9672 -38) rotate(31.0254)"/>
</clipPath>
</defs>
</svg>
